<?xml version="1.0" encoding="UTF-8"?>
<svg id="Calque_1" xmlns="http://www.w3.org/2000/svg" version="1.1" viewBox="0 0 2145.84 434.62">
  <!-- Generator: Adobe Illustrator 29.3.1, SVG Export Plug-In . SVG Version: 2.1.0 Build 151)  -->
  <defs>
    <style>
      .st0 {
        fill: #0058d3;
      }
    </style>
  </defs>
  <path d="M0,131.19v-32.13h145.02v32.13H0ZM52.65,331.99V37.93h33.47v294.06h-33.47Z"/>
  <path d="M195.88,331.99V1.78h33.47v148.14l-6.69,6.69c3.27-12.19,9.37-22.98,18.29-32.35,8.92-9.37,19.41-16.73,31.46-22.09,12.05-5.35,24.32-8.03,36.81-8.03,17.85,0,32.72,3.42,44.62,10.26,11.9,6.85,20.75,17.4,26.55,31.68,5.8,14.28,8.7,32.43,8.7,54.44v141.45h-33.91v-139.67c0-15.46-2.01-28.18-6.02-38.15-4.02-9.96-10.19-17.33-18.52-22.09-8.33-4.76-18.74-6.99-31.24-6.69-9.82,0-19.04,1.72-27.67,5.13-8.63,3.42-16.06,8.11-22.31,14.06-6.25,5.95-11.16,12.79-14.73,20.53-3.57,7.74-5.35,16.06-5.35,24.99v141.9h-33.47Z"/>
  <path d="M488.15,48.64c-8.33,0-14.66-2.15-18.96-6.47-4.32-4.31-6.47-10.19-6.47-17.63s2.23-13.39,6.69-17.85c4.46-4.46,10.71-6.69,18.74-6.69s14.28,2.16,18.74,6.47c4.46,4.32,6.69,10.34,6.69,18.07,0,7.14-2.23,12.94-6.69,17.4s-10.71,6.69-18.74,6.69ZM471.64,331.99V99.06h33.47v232.93h-33.47Z"/>
  <path d="M588.1,331.99V99.06h33.47l.89,62.02-3.57-8.48c3.27-10.41,8.55-20.08,15.84-29,7.29-8.92,15.99-16.06,26.1-21.42,10.11-5.35,21.27-8.03,33.47-8.03,5.05,0,9.82.38,14.28,1.12,4.46.75,8.18,1.72,11.16,2.9l-9.37,37.48c-3.87-1.78-7.81-3.05-11.82-3.79-4.02-.74-7.81-1.12-11.38-1.12-10.12,0-19.19,1.79-27.22,5.36-8.03,3.57-14.88,8.55-20.53,14.95-5.66,6.4-9.97,13.76-12.94,22.09-2.98,8.33-4.46,17.26-4.46,26.77v132.08h-33.91Z"/>
  <path d="M849.14,336.45c-21.13,0-40.09-5.2-56.89-15.62-16.81-10.41-30.05-24.77-39.71-43.06-9.67-18.3-14.5-39.04-14.5-62.25s4.91-44.4,14.72-62.69c9.82-18.3,23.05-32.64,39.71-43.06,16.66-10.41,35.4-15.62,56.22-15.62,11.6,0,22.83,1.79,33.69,5.35,10.86,3.57,20.6,8.56,29.23,14.95,8.62,6.4,15.76,13.69,21.42,21.86,5.65,8.19,9.07,16.73,10.26,25.66l-10.26-3.57V1.78h33.47v330.2h-33.02l-.89-58.01,8.48-3.12c-1.19,8.33-4.54,16.44-10.04,24.32-5.51,7.89-12.42,14.95-20.75,21.2-8.33,6.25-17.78,11.16-28.33,14.73-10.56,3.57-21.5,5.35-32.8,5.35ZM854.04,305.66c15.46,0,29.3-3.86,41.5-11.6,12.19-7.73,21.79-18.44,28.78-32.13,6.99-13.68,10.49-29.3,10.49-46.85s-3.5-33.09-10.49-46.63c-6.99-13.53-16.59-24.24-28.78-32.13-12.2-7.88-26.03-11.82-41.5-11.82s-30.12,3.95-42.17,11.82c-12.05,7.89-21.57,18.59-28.56,32.13-6.99,13.54-10.49,29.08-10.49,46.63s3.42,32.73,10.26,46.41c6.84,13.69,16.36,24.47,28.56,32.35,12.19,7.89,26.33,11.83,42.39,11.83Z"/>
  <path d="M1144.08,336.45c-23.2,0-43.81-5.05-61.8-15.17-18-10.11-32.06-24.24-42.17-42.39-10.12-18.14-15.17-38.97-15.17-62.47,0-18.14,2.82-34.58,8.48-49.31,5.65-14.73,13.61-27.59,23.87-38.6,10.26-11,22.53-19.56,36.81-25.66,14.28-6.09,29.74-9.15,46.41-9.15,15.76,0,30.12,2.83,43.06,8.48,12.94,5.65,24.1,13.46,33.47,23.43,9.37,9.97,16.43,21.79,21.2,35.47,4.76,13.69,6.84,28.71,6.25,45.07l-.45,15.62h-194.1l-4.91-28.11h173.58l-8.03,7.59v-10.71c-.6-10.71-3.72-21.04-9.37-31.01-5.66-9.96-13.61-18.07-23.87-24.32-10.26-6.25-22.53-9.37-36.81-9.37-16.66,0-31.09,3.35-43.28,10.04-12.2,6.69-21.57,16.59-28.11,29.67-6.55,13.09-9.82,29.3-9.82,48.64s3.57,34.43,10.71,47.97c7.14,13.54,17.33,24.03,30.57,31.46,13.23,7.44,29.23,11.16,47.97,11.16,11,0,21.93-1.85,32.8-5.58,10.86-3.72,22.83-11.08,35.92-22.09l17.4,24.1c-6.85,6.85-15.02,12.87-24.54,18.07-9.52,5.21-19.93,9.37-31.24,12.49-11.31,3.12-22.91,4.69-34.81,4.69Z"/>
  <path d="M1336.85,434.62l45.07-109.77,3.12,31.68-116.91-257.47h37.93l79.87,178.49c2.38,4.76,4.75,10.34,7.14,16.73,2.38,6.4,4.61,12.72,6.69,18.96l-12.49-1.34c2.08-5.05,4.09-10.26,6.02-15.62,1.93-5.35,3.79-10.56,5.58-15.62l70.06-181.61h38.38l-94.15,232.93-40.16,102.63h-36.14Z"/>
  <path d="M1650.54,336.45c-23.2,0-43.81-5.05-61.8-15.17-18-10.11-32.06-24.24-42.17-42.39-10.12-18.14-15.17-38.97-15.17-62.47,0-18.14,2.82-34.58,8.48-49.31,5.65-14.73,13.61-27.59,23.87-38.6,10.26-11,22.53-19.56,36.81-25.66,14.28-6.09,29.74-9.15,46.41-9.15,15.76,0,30.12,2.83,43.06,8.48,12.94,5.65,24.1,13.46,33.47,23.43,9.37,9.97,16.43,21.79,21.2,35.47,4.76,13.69,6.84,28.71,6.25,45.07l-.45,15.62h-194.1l-4.91-28.11h173.58l-8.03,7.59v-10.71c-.6-10.71-3.72-21.04-9.37-31.01-5.66-9.96-13.61-18.07-23.87-24.32-10.26-6.25-22.53-9.37-36.81-9.37-16.66,0-31.09,3.35-43.28,10.04-12.2,6.69-21.57,16.59-28.11,29.67-6.55,13.09-9.82,29.3-9.82,48.64s3.57,34.43,10.71,47.97c7.14,13.54,17.33,24.03,30.57,31.46,13.23,7.44,29.23,11.16,47.97,11.16,11,0,21.93-1.85,32.8-5.58,10.86-3.72,22.83-11.08,35.92-22.09l17.4,24.1c-6.85,6.85-15.02,12.87-24.54,18.07-9.52,5.21-19.93,9.37-31.24,12.49-11.31,3.12-22.91,4.69-34.81,4.69Z"/>
  <path class="st0" d="M1899.53,336.45c-20.23,0-38.53-5.28-54.89-15.84-16.36-10.56-29.3-24.99-38.82-43.28-9.52-18.3-14.28-39.04-14.28-62.25s4.91-44.32,14.73-62.47c9.82-18.14,22.98-32.42,39.49-42.84,16.51-10.41,35.03-15.62,55.55-15.62,12.19,0,23.5,1.79,33.91,5.35,10.41,3.57,19.7,8.56,27.89,14.95,8.18,6.4,15.02,13.83,20.53,22.31,5.5,8.48,9.29,17.63,11.38,27.44l-9.82-4.91,1.34-60.24h33.47v232.93h-33.91v-57.12l8.92-5.8c-2.09,8.92-6.1,17.48-12.05,25.66-5.95,8.19-13.16,15.4-21.64,21.64-8.48,6.25-18,11.16-28.56,14.73-10.56,3.57-21.64,5.35-33.24,5.35ZM1907.11,304.32c15.47,0,29.3-3.79,41.5-11.38,12.19-7.59,21.79-18.14,28.78-31.68,6.99-13.53,10.49-28.93,10.49-46.18s-3.5-32.57-10.49-45.96c-6.99-13.39-16.59-23.94-28.78-31.68-12.2-7.73-26.03-11.6-41.5-11.6s-29.67,3.87-41.72,11.6c-12.05,7.74-21.57,18.3-28.56,31.68-6.99,13.39-10.49,28.71-10.49,45.96s3.42,32.2,10.26,45.74c6.84,13.54,16.36,24.17,28.56,31.9,12.19,7.74,26.17,11.6,41.94,11.6Z"/>
  <path class="st0" d="M2120.4,48.64c-8.33,0-14.66-2.15-18.96-6.47-4.32-4.31-6.47-10.19-6.47-17.63s2.23-13.39,6.69-17.85c4.46-4.46,10.71-6.69,18.74-6.69s14.28,2.16,18.74,6.47c4.46,4.32,6.69,10.34,6.69,18.07,0,7.14-2.23,12.94-6.69,17.4-4.46,4.46-10.71,6.69-18.74,6.69ZM2103.89,331.99V99.06h33.47v232.93h-33.47Z"/>
</svg>