<?xml version="1.0" encoding="UTF-8" standalone="no" ?>
<!DOCTYPE svg PUBLIC "-//W3C//DTD SVG 1.1//EN" "http://www.w3.org/Graphics/SVG/1.1/DTD/svg11.dtd">
<svg xmlns="http://www.w3.org/2000/svg" xmlns:xlink="http://www.w3.org/1999/xlink" version="1.1" width="1080" height="1080" viewBox="0 0 1080 1080" xml:space="preserve">
<desc>Created with Fabric.js 5.2.4</desc>
<defs>
</defs>
<rect x="0" y="0" width="100%" height="100%" fill="transparent"></rect>
<g transform="matrix(1 0 0 1 540 540)" id="d512f02b-453d-49d1-b39d-494fcbdbdaf7"  >
<rect style="stroke: none; stroke-width: 1; stroke-dasharray: none; stroke-linecap: butt; stroke-dashoffset: 0; stroke-linejoin: miter; stroke-miterlimit: 4; fill: rgb(255,255,255); fill-rule: nonzero; opacity: 1; visibility: hidden;" vector-effect="non-scaling-stroke"  x="-540" y="-540" rx="0" ry="0" width="1080" height="1080" />
</g>
<g transform="matrix(1 0 0 1 540 540)" id="22a5395a-e929-4174-bb82-f7728a19f81d"  >
</g>
<g transform="matrix(1 0 0 1 -423.58 558.28)"  >
<path style="stroke: none; stroke-width: 1; stroke-dasharray: none; stroke-linecap: butt; stroke-dashoffset: 0; stroke-linejoin: miter; stroke-miterlimit: 4; fill: rgb(255,255,255); fill-rule: nonzero; opacity: 1;" vector-effect="non-scaling-stroke"  transform=" translate(-72.51, -184.96)" d="M 0 131.19 L 0 99.06 L 145.02 99.06 L 145.02 131.19 L 0 131.19 Z M 52.65 331.99 L 52.65 37.93 L 86.12 37.93 L 86.12 331.99 L 52.650000000000006 331.99 Z" stroke-linecap="round" />
</g>
<g transform="matrix(1 0 0 1 -203.61 540.21)"  >
<path style="stroke: none; stroke-width: 1; stroke-dasharray: none; stroke-linecap: butt; stroke-dashoffset: 0; stroke-linejoin: miter; stroke-miterlimit: 4; fill: rgb(255,255,255); fill-rule: nonzero; opacity: 1;" vector-effect="non-scaling-stroke"  transform=" translate(-292.48, -166.89)" d="M 195.88 331.99 L 195.88 1.78 L 229.35 1.78 L 229.35 149.92 L 222.66 156.60999999999999 C 225.93 144.42 232.03 133.63 240.95 124.25999999999999 C 249.86999999999998 114.88999999999999 260.36 107.52999999999999 272.40999999999997 102.16999999999999 C 284.46 96.82 296.72999999999996 94.13999999999999 309.21999999999997 94.13999999999999 C 327.07 94.13999999999999 341.93999999999994 97.55999999999999 353.84 104.39999999999999 C 365.73999999999995 111.24999999999999 374.59 121.79999999999998 380.39 136.07999999999998 C 386.19 150.35999999999999 389.09 168.51 389.09 190.51999999999998 L 389.09 331.96999999999997 L 355.17999999999995 331.96999999999997 L 355.17999999999995 192.29999999999998 C 355.17999999999995 176.83999999999997 353.16999999999996 164.11999999999998 349.15999999999997 154.14999999999998 C 345.14 144.18999999999997 338.96999999999997 136.82 330.64 132.05999999999997 C 322.31 127.29999999999997 311.9 125.06999999999998 299.4 125.36999999999998 C 289.58 125.36999999999998 280.35999999999996 127.08999999999997 271.72999999999996 130.49999999999997 C 263.09999999999997 133.91999999999996 255.66999999999996 138.60999999999996 249.41999999999996 144.55999999999997 C 243.16999999999996 150.50999999999996 238.25999999999996 157.34999999999997 234.68999999999997 165.08999999999997 C 231.11999999999998 172.82999999999998 229.33999999999997 181.14999999999998 229.33999999999997 190.07999999999998 L 229.33999999999997 331.98 L 195.86999999999998 331.98 Z" stroke-linecap="round" />
</g>
<g transform="matrix(1 0 0 1 -7.94 539.32)"  >
<path style="stroke: none; stroke-width: 1; stroke-dasharray: none; stroke-linecap: butt; stroke-dashoffset: 0; stroke-linejoin: miter; stroke-miterlimit: 4; fill: rgb(255,255,255); fill-rule: nonzero; opacity: 1;" vector-effect="non-scaling-stroke"  transform=" translate(-488.15, -166)" d="M 488.15 48.64 C 479.82 48.64 473.48999999999995 46.49 469.19 42.17 C 464.87 37.86 462.71999999999997 31.980000000000004 462.71999999999997 24.540000000000003 C 462.71999999999997 17.1 464.95 11.150000000000002 469.40999999999997 6.690000000000001 C 473.86999999999995 2.2300000000000013 480.11999999999995 8.881784197001252e-16 488.15 8.881784197001252e-16 C 496.18 8.881784197001252e-16 502.42999999999995 2.160000000000001 506.89 6.470000000000001 C 511.34999999999997 10.790000000000001 513.58 16.810000000000002 513.58 24.54 C 513.58 31.68 511.35 37.48 506.89000000000004 41.94 C 502.43000000000006 46.4 496.18000000000006 48.629999999999995 488.15000000000003 48.629999999999995 Z M 471.64 331.99 L 471.64 99.06 L 505.11 99.06 L 505.11 331.99 L 471.64 331.99 Z" stroke-linecap="round" />
</g>
<g transform="matrix(1 0 0 1 157.83 586.39)"  >
<path style="stroke: none; stroke-width: 1; stroke-dasharray: none; stroke-linecap: butt; stroke-dashoffset: 0; stroke-linejoin: miter; stroke-miterlimit: 4; fill: rgb(255,255,255); fill-rule: nonzero; opacity: 1;" vector-effect="non-scaling-stroke"  transform=" translate(-653.92, -213.07)" d="M 588.1 331.99 L 588.1 99.06 L 621.57 99.06 L 622.46 161.08 L 618.89 152.60000000000002 C 622.16 142.19000000000003 627.4399999999999 132.52000000000004 634.73 123.60000000000002 C 642.02 114.68000000000002 650.72 107.54000000000002 660.83 102.18000000000002 C 670.94 96.83000000000003 682.1 94.15000000000002 694.3000000000001 94.15000000000002 C 699.35 94.15000000000002 704.1200000000001 94.53000000000002 708.58 95.27000000000002 C 713.0400000000001 96.02000000000002 716.76 96.99000000000002 719.74 98.17000000000003 L 710.37 135.65000000000003 C 706.5 133.87000000000003 702.5600000000001 132.60000000000002 698.55 131.86000000000004 C 694.53 131.12000000000003 690.74 130.74000000000004 687.17 130.74000000000004 C 677.05 130.74000000000004 667.9799999999999 132.53000000000003 659.9499999999999 136.10000000000005 C 651.92 139.67000000000004 645.0699999999999 144.65000000000006 639.42 151.05000000000004 C 633.76 157.45000000000005 629.4499999999999 164.81000000000003 626.4799999999999 173.14000000000004 C 623.4999999999999 181.47000000000006 622.0199999999999 190.40000000000003 622.0199999999999 199.91000000000005 L 622.0199999999999 331.99000000000007 L 588.1099999999999 331.99000000000007 Z" stroke-linecap="round" />
</g>
<g transform="matrix(1 0 0 1 356.18 542.44)"  >
<path style="stroke: none; stroke-width: 1; stroke-dasharray: none; stroke-linecap: butt; stroke-dashoffset: 0; stroke-linejoin: miter; stroke-miterlimit: 4; fill: rgb(255,255,255); fill-rule: nonzero; opacity: 1;" vector-effect="non-scaling-stroke"  transform=" translate(-852.27, -169.12)" d="M 849.14 336.45 C 828.01 336.45 809.05 331.25 792.25 320.83 C 775.44 310.41999999999996 762.2 296.06 752.54 277.77 C 742.87 259.46999999999997 738.04 238.73 738.04 215.51999999999998 C 738.04 192.30999999999997 742.9499999999999 171.11999999999998 752.76 152.82999999999998 C 762.58 134.52999999999997 775.81 120.18999999999998 792.47 109.76999999999998 C 809.13 99.35999999999999 827.87 94.14999999999998 848.69 94.14999999999998 C 860.2900000000001 94.14999999999998 871.5200000000001 95.93999999999998 882.3800000000001 99.49999999999997 C 893.2400000000001 103.06999999999996 902.9800000000001 108.05999999999997 911.6100000000001 114.44999999999997 C 920.2300000000001 120.84999999999998 927.3700000000001 128.14 933.0300000000001 136.30999999999997 C 938.6800000000001 144.49999999999997 942.1000000000001 153.03999999999996 943.2900000000001 161.96999999999997 L 933.0300000000001 158.39999999999998 L 933.0300000000001 1.78 L 966.5000000000001 1.78 L 966.5000000000001 331.97999999999996 L 933.4800000000001 331.97999999999996 L 932.5900000000001 273.96999999999997 L 941.0700000000002 270.84999999999997 C 939.8800000000001 279.17999999999995 936.5300000000002 287.28999999999996 931.0300000000002 295.16999999999996 C 925.5200000000002 303.05999999999995 918.6100000000002 310.11999999999995 910.2800000000002 316.36999999999995 C 901.9500000000002 322.61999999999995 892.5000000000002 327.53 881.9500000000002 331.09999999999997 C 871.3900000000002 334.66999999999996 860.4500000000002 336.45 849.1500000000002 336.45 Z M 854.04 305.66 C 869.5 305.66 883.3399999999999 301.8 895.54 294.06 C 907.73 286.33 917.3299999999999 275.62 924.3199999999999 261.93 C 931.31 248.25 934.81 232.63 934.81 215.08 C 934.81 197.53000000000003 931.31 181.99 924.3199999999999 168.45000000000002 C 917.3299999999999 154.92000000000002 907.7299999999999 144.21 895.54 136.32000000000002 C 883.3399999999999 128.44000000000003 869.51 124.50000000000003 854.04 124.50000000000003 C 838.5699999999999 124.50000000000003 823.92 128.45000000000002 811.87 136.32000000000002 C 799.82 144.21 790.3 154.91000000000003 783.3100000000001 168.45000000000002 C 776.32 181.99 772.82 197.53000000000003 772.82 215.08 C 772.82 232.63 776.24 247.81 783.08 261.49 C 789.9200000000001 275.18 799.44 285.96000000000004 811.64 293.84000000000003 C 823.83 301.73 837.97 305.67 854.03 305.67 Z" stroke-linecap="round" />
</g>
<g transform="matrix(1 0 0 1 638.67 588.4)"  >
<path style="stroke: none; stroke-width: 1; stroke-dasharray: none; stroke-linecap: butt; stroke-dashoffset: 0; stroke-linejoin: miter; stroke-miterlimit: 4; fill: rgb(255,255,255); fill-rule: nonzero; opacity: 1;" vector-effect="non-scaling-stroke"  transform=" translate(-1134.76, -215.08)" d="M 1144.08 336.45 C 1120.8799999999999 336.45 1100.27 331.4 1082.28 321.28 C 1064.28 311.16999999999996 1050.22 297.03999999999996 1040.11 278.89 C 1029.99 260.75 1024.9399999999998 239.92 1024.9399999999998 216.42 C 1024.9399999999998 198.27999999999997 1027.7599999999998 181.83999999999997 1033.4199999999998 167.10999999999999 C 1039.07 152.38 1047.0299999999997 139.51999999999998 1057.2899999999997 128.51 C 1067.5499999999997 117.50999999999999 1079.8199999999997 108.94999999999999 1094.0999999999997 102.85 C 1108.3799999999997 96.75999999999999 1123.8399999999997 93.69999999999999 1140.5099999999998 93.69999999999999 C 1156.2699999999998 93.69999999999999 1170.6299999999997 96.52999999999999 1183.5699999999997 102.17999999999999 C 1196.5099999999998 107.83 1207.6699999999996 115.63999999999999 1217.0399999999997 125.60999999999999 C 1226.4099999999996 135.57999999999998 1233.4699999999998 147.39999999999998 1238.2399999999998 161.07999999999998 C 1242.9999999999998 174.76999999999998 1245.0799999999997 189.79 1244.4899999999998 206.14999999999998 L 1244.0399999999997 221.76999999999998 L 1049.9399999999998 221.76999999999998 L 1045.0299999999997 193.65999999999997 L 1218.6099999999997 193.65999999999997 L 1210.5799999999997 201.24999999999997 L 1210.5799999999997 190.53999999999996 C 1209.9799999999998 179.82999999999996 1206.8599999999997 169.49999999999997 1201.2099999999998 159.52999999999997 C 1195.5499999999997 149.56999999999996 1187.6 141.45999999999998 1177.34 135.20999999999998 C 1167.08 128.95999999999998 1154.81 125.83999999999997 1140.53 125.83999999999997 C 1123.87 125.83999999999997 1109.44 129.18999999999997 1097.25 135.87999999999997 C 1085.05 142.56999999999996 1075.68 152.46999999999997 1069.14 165.54999999999995 C 1062.5900000000001 178.63999999999996 1059.3200000000002 194.84999999999997 1059.3200000000002 214.18999999999994 C 1059.3200000000002 233.52999999999992 1062.89 248.61999999999995 1070.0300000000002 262.15999999999997 C 1077.1700000000003 275.7 1087.3600000000001 286.18999999999994 1100.6000000000001 293.61999999999995 C 1113.8300000000002 301.05999999999995 1129.8300000000002 304.78 1148.5700000000002 304.78 C 1159.5700000000002 304.78 1170.5000000000002 302.92999999999995 1181.3700000000001 299.2 C 1192.23 295.47999999999996 1204.2 288.12 1217.2900000000002 277.11 L 1234.6900000000003 301.21000000000004 C 1227.8400000000004 308.06000000000006 1219.6700000000003 314.08000000000004 1210.1500000000003 319.28000000000003 C 1200.6300000000003 324.49 1190.2200000000003 328.65000000000003 1178.9100000000003 331.77000000000004 C 1167.6000000000004 334.89000000000004 1156.0000000000002 336.46000000000004 1144.1000000000004 336.46000000000004 Z" stroke-linecap="round" />
</g>
<g transform="matrix(1 0 0 1 891.63 640.16)"  >
<path style="stroke: none; stroke-width: 1; stroke-dasharray: none; stroke-linecap: butt; stroke-dashoffset: 0; stroke-linejoin: miter; stroke-miterlimit: 4; fill: rgb(255,255,255); fill-rule: nonzero; opacity: 1;" vector-effect="non-scaling-stroke"  transform=" translate(-1387.72, -266.84)" d="M 1336.85 434.62 L 1381.9199999999998 324.85 L 1385.0399999999997 356.53000000000003 L 1268.1299999999997 99.06 L 1306.0599999999997 99.06 L 1385.9299999999998 277.55 C 1388.31 282.31 1390.6799999999998 287.89 1393.07 294.28000000000003 C 1395.45 300.68 1397.6799999999998 307.00000000000006 1399.76 313.24 L 1387.27 311.90000000000003 C 1389.35 306.85 1391.36 301.64000000000004 1393.29 296.28000000000003 C 1395.22 290.93 1397.08 285.72 1398.87 280.66 L 1468.9299999999998 99.05000000000001 L 1507.31 99.05000000000001 L 1413.1599999999999 331.98 L 1372.9999999999998 434.61 L 1336.8599999999997 434.61 Z" stroke-linecap="round" />
</g>
<g transform="matrix(1 0 0 1 1145.13 588.4)"  >
<path style="stroke: none; stroke-width: 1; stroke-dasharray: none; stroke-linecap: butt; stroke-dashoffset: 0; stroke-linejoin: miter; stroke-miterlimit: 4; fill: rgb(255,255,255); fill-rule: nonzero; opacity: 1;" vector-effect="non-scaling-stroke"  transform=" translate(-1641.22, -215.08)" d="M 1650.54 336.45 C 1627.34 336.45 1606.73 331.4 1588.74 321.28 C 1570.74 311.16999999999996 1556.68 297.03999999999996 1546.57 278.89 C 1536.45 260.75 1531.3999999999999 239.92 1531.3999999999999 216.42 C 1531.3999999999999 198.27999999999997 1534.2199999999998 181.83999999999997 1539.8799999999999 167.10999999999999 C 1545.53 152.38 1553.4899999999998 139.51999999999998 1563.7499999999998 128.51 C 1574.0099999999998 117.50999999999999 1586.2799999999997 108.94999999999999 1600.5599999999997 102.85 C 1614.8399999999997 96.75999999999999 1630.2999999999997 93.69999999999999 1646.9699999999998 93.69999999999999 C 1662.7299999999998 93.69999999999999 1677.0899999999997 96.52999999999999 1690.0299999999997 102.17999999999999 C 1702.9699999999998 107.83 1714.1299999999997 115.63999999999999 1723.4999999999998 125.60999999999999 C 1732.8699999999997 135.57999999999998 1739.9299999999998 147.39999999999998 1744.6999999999998 161.07999999999998 C 1749.4599999999998 174.76999999999998 1751.5399999999997 189.79 1750.9499999999998 206.14999999999998 L 1750.4999999999998 221.76999999999998 L 1556.3999999999999 221.76999999999998 L 1551.4899999999998 193.65999999999997 L 1725.0699999999997 193.65999999999997 L 1717.0399999999997 201.24999999999997 L 1717.0399999999997 190.53999999999996 C 1716.4399999999998 179.82999999999996 1713.3199999999997 169.49999999999997 1707.6699999999998 159.52999999999997 C 1702.0099999999998 149.56999999999996 1694.06 141.45999999999998 1683.8 135.20999999999998 C 1673.54 128.95999999999998 1661.27 125.83999999999997 1646.99 125.83999999999997 C 1630.33 125.83999999999997 1615.9 129.18999999999997 1603.71 135.87999999999997 C 1591.51 142.56999999999996 1582.14 152.46999999999997 1575.6000000000001 165.54999999999995 C 1569.0500000000002 178.63999999999996 1565.7800000000002 194.84999999999997 1565.7800000000002 214.18999999999994 C 1565.7800000000002 233.52999999999992 1569.3500000000001 248.61999999999995 1576.4900000000002 262.15999999999997 C 1583.6300000000003 275.7 1593.8200000000002 286.18999999999994 1607.0600000000002 293.61999999999995 C 1620.2900000000002 301.05999999999995 1636.2900000000002 304.78 1655.0300000000002 304.78 C 1666.0300000000002 304.78 1676.9600000000003 302.92999999999995 1687.8300000000002 299.2 C 1698.69 295.47999999999996 1710.66 288.12 1723.7500000000002 277.11 L 1741.1500000000003 301.21000000000004 C 1734.3000000000004 308.06000000000006 1726.1300000000003 314.08000000000004 1716.6100000000004 319.28000000000003 C 1707.0900000000004 324.49 1696.6800000000003 328.65000000000003 1685.3700000000003 331.77000000000004 C 1674.0600000000004 334.89000000000004 1662.4600000000003 336.46000000000004 1650.5600000000004 336.46000000000004 Z" stroke-linecap="round" />
</g>
<g transform="matrix(1 0 0 1 1409.68 588.62)"  >
<path style="stroke: none; stroke-width: 1; stroke-dasharray: none; stroke-linecap: butt; stroke-dashoffset: 0; stroke-linejoin: miter; stroke-miterlimit: 4; fill: rgb(0,86,214); fill-rule: nonzero; opacity: 1;" vector-effect="non-scaling-stroke"  transform=" translate(-1905.78, -215.3)" d="M 1899.53 336.45 C 1879.3 336.45 1861 331.17 1844.6399999999999 320.61 C 1828.28 310.05 1815.34 295.62 1805.82 277.33000000000004 C 1796.3 259.03000000000003 1791.54 238.29000000000005 1791.54 215.08000000000004 C 1791.54 191.87000000000003 1796.45 170.76000000000005 1806.27 152.61000000000004 C 1816.09 134.47000000000003 1829.25 120.19000000000004 1845.76 109.77000000000004 C 1862.27 99.36000000000004 1880.79 94.15000000000003 1901.31 94.15000000000003 C 1913.5 94.15000000000003 1924.81 95.94000000000004 1935.22 99.50000000000003 C 1945.63 103.07000000000002 1954.92 108.06000000000003 1963.1100000000001 114.45000000000003 C 1971.2900000000002 120.85000000000004 1978.13 128.28000000000003 1983.64 136.76000000000002 C 1989.14 145.24 1992.93 154.39000000000001 1995.0200000000002 164.20000000000002 L 1985.2000000000003 159.29000000000002 L 1986.5400000000002 99.05000000000001 L 2020.0100000000002 99.05000000000001 L 2020.0100000000002 331.98 L 1986.1000000000001 331.98 L 1986.1000000000001 274.86 L 1995.0200000000002 269.06 C 1992.9300000000003 277.98 1988.9200000000003 286.54 1982.9700000000003 294.72 C 1977.0200000000002 302.91 1969.8100000000002 310.12 1961.3300000000002 316.36 C 1952.8500000000001 322.61 1943.3300000000002 327.52000000000004 1932.7700000000002 331.09000000000003 C 1922.2100000000003 334.66 1911.13 336.44000000000005 1899.5300000000002 336.44000000000005 Z M 1907.11 304.32 C 1922.58 304.32 1936.4099999999999 300.53 1948.61 292.94 C 1960.8 285.35 1970.3999999999999 274.8 1977.3899999999999 261.26 C 1984.3799999999999 247.73 1987.8799999999999 232.32999999999998 1987.8799999999999 215.07999999999998 C 1987.8799999999999 197.82999999999998 1984.3799999999999 182.51 1977.3899999999999 169.11999999999998 C 1970.3999999999999 155.72999999999996 1960.8 145.17999999999998 1948.61 137.43999999999997 C 1936.4099999999999 129.70999999999998 1922.58 125.83999999999997 1907.11 125.83999999999997 C 1891.6399999999999 125.83999999999997 1877.4399999999998 129.70999999999998 1865.3899999999999 137.43999999999997 C 1853.34 145.17999999999998 1843.82 155.73999999999998 1836.83 169.11999999999998 C 1829.84 182.51 1826.34 197.82999999999998 1826.34 215.07999999999998 C 1826.34 232.32999999999998 1829.76 247.27999999999997 1836.6 260.82 C 1843.4399999999998 274.36 1852.9599999999998 284.99 1865.1599999999999 292.71999999999997 C 1877.35 300.46 1891.33 304.32 1907.1 304.32 Z" stroke-linecap="round" />
</g>
<g transform="matrix(1 0 0 1 1624.31 539.32)"  >
<path style="stroke: none; stroke-width: 1; stroke-dasharray: none; stroke-linecap: butt; stroke-dashoffset: 0; stroke-linejoin: miter; stroke-miterlimit: 4; fill: rgb(0,86,214); fill-rule: nonzero; opacity: 1;" vector-effect="non-scaling-stroke"  transform=" translate(-2120.4, -166)" d="M 2120.4 48.64 C 2112.07 48.64 2105.7400000000002 46.49 2101.44 42.17 C 2097.12 37.86 2094.9700000000003 31.980000000000004 2094.9700000000003 24.540000000000003 C 2094.9700000000003 17.1 2097.2000000000003 11.150000000000002 2101.6600000000003 6.690000000000001 C 2106.1200000000003 2.2300000000000013 2112.3700000000003 8.881784197001252e-16 2120.4 8.881784197001252e-16 C 2128.43 8.881784197001252e-16 2134.6800000000003 2.160000000000001 2139.14 6.470000000000001 C 2143.6 10.790000000000001 2145.83 16.810000000000002 2145.83 24.54 C 2145.83 31.68 2143.6 37.48 2139.14 41.94 C 2134.68 46.4 2128.43 48.629999999999995 2120.4 48.629999999999995 Z M 2103.89 331.99 L 2103.89 99.06 L 2137.3599999999997 99.06 L 2137.3599999999997 331.99 L 2103.89 331.99 Z" stroke-linecap="round" />
</g>
<g transform="matrix(NaN NaN NaN NaN 0 0)"  >
<g style=""   >
</g>
</g>
<g transform="matrix(NaN NaN NaN NaN 0 0)"  >
<g style=""   >
</g>
</g>
</svg>